<?xml version="1.0" standalone="no"?>
<!DOCTYPE svg PUBLIC "-//W3C//DTD SVG 20010904//EN"
 "http://www.w3.org/TR/2001/REC-SVG-20010904/DTD/svg10.dtd">
<svg version="1.0" xmlns="http://www.w3.org/2000/svg"
 width="2362.000000pt" height="2362.000000pt" viewBox="0 0 2362.000000 2362.000000"
 preserveAspectRatio="xMidYMid meet">
<metadata>
Created by potrace 1.16, written by Peter Selinger 2001-2019
</metadata>
<g transform="translate(0.000000,2362.000000) scale(0.100000,-0.100000)">
<path d="M17210 20331 c0 -15 -31 -24 -105 -32 -96 -11 -196 -29 -217 -40 -10
-5 -33 -9 -51 -9 -20 0 -44 -9 -57 -20 -13 -11 -37 -20 -56 -20 -18 0 -35 -4
-38 -9 -3 -4 -28 -11 -55 -15 -28 -4 -53 -11 -56 -16 -3 -6 -19 -10 -34 -10
-16 0 -34 -7 -41 -15 -7 -8 -20 -15 -29 -15 -18 0 -107 -32 -117 -43 -4 -4
-20 -7 -34 -7 -15 0 -33 -7 -40 -15 -7 -8 -23 -15 -35 -15 -12 0 -28 -7 -35
-15 -7 -8 -20 -15 -30 -15 -10 0 -23 -7 -30 -15 -7 -8 -20 -15 -30 -15 -10 0
-23 -7 -30 -15 -7 -8 -18 -15 -24 -15 -7 0 -56 -22 -110 -50 -54 -27 -102 -50
-108 -50 -5 0 -29 -16 -52 -35 -24 -19 -48 -35 -55 -35 -6 0 -11 -4 -11 -9 0
-5 -8 -11 -17 -15 -10 -3 -31 -15 -48 -25 -16 -11 -47 -29 -67 -40 -70 -38
-82 -46 -110 -73 -15 -16 -32 -28 -38 -28 -5 0 -10 -4 -10 -8 0 -4 -46 -41
-102 -82 -57 -40 -110 -81 -119 -89 -8 -9 -48 -45 -89 -81 -163 -145 -375
-370 -477 -508 -24 -31 -49 -64 -56 -72 -27 -30 -127 -170 -127 -178 0 -4 -11
-19 -25 -34 -14 -15 -25 -31 -25 -36 0 -5 -9 -17 -20 -27 -11 -10 -20 -25 -20
-33 0 -8 -11 -30 -25 -48 -14 -18 -25 -40 -25 -48 0 -9 -5 -16 -10 -16 -6 0
-15 -12 -20 -26 -6 -15 -19 -39 -30 -54 -11 -16 -20 -35 -20 -43 0 -8 -7 -17
-15 -21 -8 -3 -15 -12 -15 -21 0 -13 -17 -52 -76 -168 -8 -16 -14 -35 -14 -43
0 -8 -4 -14 -10 -14 -5 0 -10 -9 -10 -20 0 -11 -7 -23 -15 -26 -8 -4 -15 -18
-15 -33 0 -14 -7 -35 -15 -45 -8 -11 -15 -32 -15 -47 0 -15 -7 -29 -15 -33 -9
-3 -15 -18 -15 -34 0 -16 -7 -35 -15 -42 -8 -7 -15 -25 -15 -40 0 -15 -6 -33
-14 -39 -8 -6 -16 -26 -19 -44 -15 -85 -24 -124 -35 -144 -7 -12 -12 -35 -12
-51 0 -16 -7 -43 -15 -58 -8 -16 -15 -45 -15 -65 0 -19 -4 -39 -9 -45 -6 -5
-13 -35 -16 -68 -4 -32 -11 -70 -16 -83 -5 -13 -9 -50 -9 -81 0 -33 -7 -69
-16 -87 -50 -92 -50 -1028 -1 -1122 10 -19 17 -55 17 -91 0 -32 5 -63 11 -69
5 -5 12 -43 15 -84 2 -40 9 -78 14 -83 6 -6 10 -24 10 -41 0 -17 7 -40 15 -51
8 -10 15 -41 15 -67 0 -27 4 -46 9 -43 11 7 21 -27 21 -71 0 -18 5 -33 10 -33
6 0 10 -17 10 -39 0 -22 6 -44 15 -51 8 -7 15 -25 15 -41 0 -15 7 -34 15 -43
8 -8 15 -22 15 -31 0 -9 7 -23 15 -31 8 -9 15 -28 15 -43 0 -16 7 -34 15 -41
8 -7 15 -20 15 -29 0 -10 7 -26 15 -37 8 -10 15 -29 15 -41 0 -12 5 -25 10
-28 6 -3 10 -21 10 -38 0 -18 7 -41 15 -51 8 -11 15 -34 15 -52 0 -18 4 -35 9
-38 5 -3 12 -26 15 -51 4 -24 11 -47 17 -50 5 -4 9 -19 9 -34 0 -16 8 -39 19
-52 10 -13 21 -40 24 -59 16 -96 27 -144 37 -154 5 -5 10 -30 10 -56 0 -25 7
-54 15 -64 12 -16 15 -58 15 -208 0 -116 -4 -188 -10 -188 -5 0 -13 -12 -16
-27 -4 -16 -10 -32 -14 -38 -5 -5 -16 -30 -26 -55 -9 -25 -30 -61 -46 -81 -15
-20 -28 -44 -28 -52 0 -8 -7 -17 -15 -21 -8 -3 -15 -14 -15 -25 0 -11 -5 -23
-10 -26 -6 -3 -19 -26 -30 -51 -11 -24 -25 -44 -30 -44 -6 0 -10 -7 -10 -16 0
-8 -11 -30 -25 -48 -14 -18 -25 -37 -25 -43 0 -5 -9 -18 -20 -28 -11 -10 -20
-23 -20 -29 0 -6 -9 -22 -20 -36 -11 -14 -20 -34 -19 -45 0 -18 20 -55 30 -55
3 0 31 -25 64 -56 33 -31 94 -82 135 -114 42 -31 81 -65 89 -74 7 -9 19 -16
26 -16 8 0 15 -3 17 -7 6 -14 98 -73 113 -73 7 0 17 -5 20 -10 3 -6 25 -19 48
-30 23 -12 56 -29 72 -40 30 -20 59 -34 105 -52 14 -6 39 -16 55 -23 17 -7 50
-20 75 -30 25 -9 53 -21 62 -26 10 -5 28 -9 42 -9 13 0 29 -7 36 -15 7 -8 27
-15 45 -15 18 0 38 -7 45 -15 7 -8 27 -15 45 -15 18 0 38 -7 45 -15 7 -8 27
-15 44 -15 17 -1 42 -7 56 -15 14 -8 40 -14 58 -15 18 0 40 -4 50 -10 17 -9
90 -24 187 -39 28 -4 60 -12 72 -19 12 -7 39 -12 61 -12 22 0 56 -7 75 -15 20
-8 52 -15 71 -15 19 0 38 -4 41 -10 3 -5 31 -10 62 -10 35 0 72 -7 97 -19 41
-20 63 -23 251 -39 55 -5 110 -14 122 -20 12 -7 48 -12 81 -12 33 0 76 -7 95
-15 20 -8 48 -15 61 -15 l25 0 -19 -46 c-11 -25 -20 -53 -20 -62 0 -9 -7 -30
-15 -46 -8 -15 -15 -36 -15 -45 0 -10 -7 -26 -15 -37 -8 -10 -15 -31 -15 -46
0 -15 -4 -30 -10 -33 -5 -3 -10 -19 -10 -34 0 -16 -7 -34 -15 -41 -8 -7 -15
-24 -15 -39 0 -14 -7 -35 -15 -45 -8 -11 -15 -28 -15 -38 0 -10 -5 -18 -11
-18 -60 0 -308 -49 -404 -80 -66 -21 -192 -55 -280 -75 -88 -20 -205 -48 -260
-62 -55 -14 -113 -26 -130 -27 -16 -1 -40 -7 -52 -14 -12 -7 -33 -12 -47 -12
-14 0 -28 -4 -31 -10 -3 -5 -18 -10 -33 -10 -15 0 -36 -7 -46 -15 -11 -8 -32
-15 -47 -15 -15 0 -30 -4 -33 -9 -4 -5 -24 -12 -45 -16 -22 -4 -45 -13 -52
-21 -6 -8 -23 -14 -38 -14 -14 0 -35 -7 -45 -15 -11 -8 -32 -15 -47 -15 -15 0
-31 -4 -34 -10 -3 -5 -16 -10 -29 -10 -12 0 -31 -7 -42 -15 -10 -8 -32 -15
-49 -15 -16 0 -39 -7 -49 -15 -11 -8 -32 -15 -47 -15 -15 0 -31 -4 -34 -10 -3
-5 -16 -10 -28 -10 -12 0 -35 -7 -51 -15 -15 -8 -36 -15 -45 -15 -9 0 -34 -9
-56 -20 -22 -11 -47 -20 -57 -20 -10 0 -18 -4 -18 -10 0 -5 -13 -10 -28 -10
-16 0 -37 -7 -48 -15 -10 -8 -30 -15 -44 -15 -14 0 -34 -7 -44 -15 -11 -8 -30
-15 -43 -15 -13 0 -31 -4 -41 -9 -26 -13 -84 -32 -112 -38 -14 -2 -38 -11 -55
-18 -42 -18 -98 -35 -117 -35 -8 0 -27 -9 -41 -20 -14 -11 -36 -20 -49 -20
-12 0 -32 -7 -42 -15 -11 -8 -30 -15 -42 -15 -13 0 -26 -4 -29 -10 -3 -5 -16
-10 -28 -10 -12 0 -31 -7 -41 -15 -11 -8 -27 -15 -37 -15 -9 0 -30 -7 -45 -15
-16 -8 -39 -15 -51 -15 -12 0 -25 -4 -28 -10 -3 -5 -15 -10 -26 -10 -11 0 -38
-12 -62 -27 -56 -36 -78 -50 -102 -63 -11 -6 -33 -19 -50 -30 -16 -11 -48 -29
-70 -40 -48 -24 -78 -43 -85 -51 -3 -4 -37 -31 -76 -60 -151 -115 -193 -150
-294 -250 -58 -57 -127 -132 -154 -167 -27 -35 -55 -66 -62 -69 -8 -3 -14 -12
-14 -19 0 -8 -7 -17 -15 -20 -8 -4 -15 -14 -15 -23 0 -9 -11 -28 -24 -42 -13
-14 -27 -35 -30 -47 -4 -12 -12 -22 -17 -22 -5 0 -9 -4 -9 -10 0 -5 -12 -26
-26 -47 -14 -21 -30 -47 -35 -58 -5 -11 -13 -28 -19 -37 -5 -10 -15 -26 -20
-35 -13 -23 -14 -27 -34 -91 -18 -61 -13 -86 16 -76 15 4 18 3 13 -7 -6 -9 -2
-11 13 -7 12 4 22 2 22 -4 0 -6 11 -7 26 -4 18 5 24 3 18 -5 -5 -8 1 -10 19
-7 15 3 28 1 30 -5 1 -5 17 -10 35 -11 18 0 32 -4 32 -8 0 -5 7 -8 15 -8 19 0
239 -57 293 -77 23 -8 40 -18 37 -23 -7 -11 101 -33 116 -24 8 5 9 3 4 -6 -6
-10 -2 -11 19 -6 20 5 26 4 20 -5 -5 -8 1 -10 20 -7 14 3 26 1 26 -3 0 -5 7
-9 15 -9 8 0 15 -5 15 -10 0 -6 3 -9 8 -8 15 4 92 -13 92 -20 0 -5 6 -9 13 -9
6 0 59 -12 117 -26 103 -25 170 -51 170 -66 0 -11 88 -34 101 -25 8 5 9 3 4
-6 -6 -10 -4 -12 9 -7 9 4 15 3 12 -2 -3 -5 1 -11 9 -15 8 -3 15 0 15 7 0 8 3
8 8 2 12 -18 92 -45 92 -32 0 9 2 9 8 1 4 -6 22 -15 40 -19 17 -3 32 -11 32
-16 0 -6 4 -8 9 -4 5 3 33 -4 61 -15 28 -11 58 -20 67 -20 9 0 35 -10 60 -22
31 -15 40 -24 31 -31 -8 -5 0 -7 22 -3 25 4 31 3 20 -4 -13 -8 -12 -10 5 -11
11 -1 26 -1 33 0 6 1 12 -3 12 -10 0 -6 7 -8 16 -5 10 4 13 2 8 -6 -5 -8 -2
-9 9 -5 10 4 17 2 17 -4 0 -6 7 -9 15 -5 8 3 15 1 15 -4 0 -6 7 -10 15 -10 8
0 15 -4 15 -8 0 -4 10 -9 22 -9 13 -1 39 -8 58 -16 19 -8 60 -24 90 -35 110
-40 120 -45 120 -59 0 -10 6 -13 16 -9 10 4 13 2 8 -6 -5 -7 0 -9 15 -5 15 3
24 -1 31 -14 7 -12 21 -19 40 -19 17 0 30 -5 30 -11 0 -6 7 -9 15 -5 8 3 15 2
15 -2 0 -4 15 -13 33 -21 17 -8 69 -31 115 -52 46 -22 87 -39 92 -39 4 0 10
-6 13 -14 3 -8 16 -20 28 -26 17 -10 20 -9 14 2 -3 7 1 4 10 -7 9 -11 21 -19
26 -17 5 1 9 -2 9 -8 0 -5 7 -10 15 -10 9 0 25 -9 37 -20 12 -11 37 -25 57
-31 43 -15 141 -76 141 -89 0 -5 7 -7 15 -4 11 5 13 2 9 -10 -5 -12 0 -16 20
-16 17 0 26 -5 26 -16 0 -10 6 -14 14 -11 8 3 17 -1 20 -9 3 -9 10 -13 15 -10
5 3 11 0 14 -7 3 -8 21 -22 41 -31 20 -9 36 -21 36 -26 0 -6 7 -10 16 -10 8 0
12 -4 9 -10 -3 -5 4 -10 15 -10 14 0 24 -8 27 -21 3 -12 11 -18 19 -15 8 3 13
0 11 -7 -1 -7 6 -12 15 -12 10 0 25 -10 34 -23 8 -12 20 -20 25 -17 5 4 9 1 9
-5 0 -6 8 -14 18 -17 18 -7 66 -53 54 -53 -3 0 27 -34 68 -75 41 -41 76 -73
78 -71 7 7 122 -115 117 -124 -3 -5 4 -14 15 -20 11 -6 18 -15 15 -20 -3 -4 7
-18 21 -29 15 -12 23 -21 18 -21 -5 -1 2 -10 15 -20 13 -11 19 -20 15 -20 -5
0 0 -7 10 -15 11 -8 17 -15 13 -15 -4 0 -3 -9 3 -20 6 -11 15 -18 19 -15 5 2
8 -3 7 -12 0 -10 6 -18 14 -18 8 -1 14 -6 13 -13 -2 -7 2 -12 7 -12 6 0 10 -6
10 -14 0 -7 14 -29 30 -47 17 -19 33 -44 36 -57 3 -12 10 -22 16 -22 5 0 6 -5
3 -11 -4 -6 2 -13 14 -16 12 -3 21 -10 20 -17 -4 -31 3 -49 27 -71 14 -13 23
-29 19 -34 -3 -6 0 -11 7 -11 7 0 22 -12 32 -27 12 -16 14 -23 5 -18 -8 5 -4
-3 8 -16 12 -13 22 -28 23 -34 3 -21 45 -105 53 -105 5 0 6 -4 2 -9 -3 -5 2
-16 10 -24 11 -12 12 -17 2 -20 -7 -3 -4 -6 6 -6 10 -1 17 -7 15 -13 -4 -21
12 -69 21 -64 4 3 13 -6 20 -20 13 -30 14 -45 1 -24 -7 11 -10 12 -10 2 0 -8
9 -21 20 -30 11 -10 22 -32 25 -51 2 -19 8 -37 12 -40 18 -13 73 -158 73 -191
0 -11 4 -20 9 -20 5 0 7 -9 4 -20 -3 -11 -1 -20 4 -20 6 0 8 -12 6 -27 -4 -22
-2 -25 6 -13 7 10 11 11 11 3 0 -10 600 -13 2965 -13 2952 0 2965 0 2985 20
11 11 33 20 49 20 16 0 42 7 57 15 16 8 37 15 47 15 17 0 24 3 85 33 19 9 38
17 43 17 5 0 28 12 52 27 59 38 80 51 97 59 17 9 79 53 98 72 7 6 17 12 22 12
5 0 59 51 120 112 107 108 190 215 190 244 0 8 7 14 15 14 8 0 15 9 15 20 0
11 4 28 9 38 5 9 15 32 21 50 7 17 16 32 21 32 5 0 9 9 9 21 0 11 7 27 15 35
8 9 15 33 15 54 0 21 5 42 10 45 6 3 10 26 10 49 0 28 7 52 20 69 20 25 20 40
20 641 0 350 -4 616 -9 616 -14 0 -22 37 -31 135 -14 140 -28 236 -38 248 -5
7 -12 43 -14 81 -2 42 -9 71 -16 74 -7 2 -12 18 -12 35 0 18 -7 45 -15 61 -8
15 -15 42 -15 58 0 16 -7 36 -15 44 -8 9 -15 29 -15 45 0 16 -4 29 -9 29 -5 0
-17 26 -26 58 -9 31 -21 64 -26 72 -5 8 -12 22 -15 30 -3 8 -10 22 -15 30 -5
8 -14 24 -19 35 -6 11 -19 34 -30 50 -11 17 -23 38 -26 48 -4 9 -10 17 -14 17
-5 0 -12 10 -16 22 -3 12 -17 33 -30 47 -13 14 -24 33 -24 43 0 9 -4 18 -9 20
-9 3 -72 76 -111 127 -34 45 -236 247 -280 279 -19 14 -39 31 -45 37 -20 22
-241 182 -275 198 -19 10 -48 27 -65 37 -16 11 -39 24 -50 30 -24 13 -46 27
-102 63 -24 15 -47 27 -53 27 -18 0 -114 32 -125 41 -5 5 -18 9 -30 9 -12 0
-30 7 -41 15 -10 8 -29 15 -41 15 -12 0 -25 5 -28 10 -3 6 -16 10 -29 10 -12
0 -31 7 -42 15 -10 8 -30 15 -42 15 -13 0 -35 9 -49 20 -14 11 -36 20 -49 20
-12 0 -26 5 -29 10 -3 6 -18 10 -33 10 -15 0 -36 6 -47 14 -11 7 -33 16 -50
18 -31 6 -88 25 -117 39 -10 5 -28 9 -41 9 -13 0 -32 7 -43 15 -10 8 -30 15
-44 15 -14 0 -34 7 -44 15 -11 8 -32 15 -48 15 -15 0 -28 5 -28 10 0 6 -8 10
-18 10 -10 0 -35 9 -57 20 -22 11 -47 20 -56 20 -9 0 -30 7 -45 15 -16 8 -39
15 -51 15 -12 0 -25 5 -28 10 -3 6 -19 10 -34 10 -15 0 -36 7 -47 15 -10 8
-32 15 -49 15 -16 0 -39 7 -49 15 -11 8 -32 15 -48 15 -15 0 -28 5 -28 10 0 6
-15 10 -34 10 -18 0 -39 7 -46 15 -7 8 -25 15 -40 15 -15 0 -33 6 -39 14 -7 8
-30 17 -52 21 -21 4 -41 11 -45 16 -3 5 -18 9 -33 9 -15 0 -36 7 -47 15 -10 8
-28 15 -38 15 -22 0 -75 16 -124 36 -18 8 -41 14 -52 14 -11 0 -57 11 -102 24
-106 30 -297 65 -593 106 -142 20 -353 66 -371 81 -6 5 -14 27 -18 49 -3 22
-11 40 -16 40 -6 0 -10 12 -10 26 0 14 -6 38 -14 52 -18 35 -36 94 -36 118 0
10 -7 28 -15 38 -8 11 -15 27 -15 37 0 9 -7 30 -15 45 -8 16 -15 38 -15 49 0
11 -7 29 -15 39 -8 11 -15 28 -15 37 0 10 -6 20 -12 22 -7 3 2 6 20 6 18 1 49
8 69 16 19 8 62 15 95 15 33 0 69 5 81 12 12 6 65 15 117 19 169 15 234 25
265 42 18 10 53 17 87 17 31 0 59 4 62 9 3 4 33 11 65 15 33 4 63 11 66 16 4
6 27 10 53 10 26 1 58 7 72 15 14 8 46 14 72 15 26 0 49 4 52 9 3 5 33 12 66
16 33 4 63 11 66 16 3 5 22 9 42 9 20 1 48 7 62 15 14 8 39 14 56 15 17 0 37
7 44 15 7 8 27 15 45 15 18 0 38 7 45 15 7 8 25 15 39 15 15 0 36 7 47 15 10
8 29 15 42 15 12 0 30 4 40 9 9 5 37 17 62 26 47 18 103 42 132 56 10 5 25 9
35 9 9 0 25 7 35 17 20 18 44 32 105 62 23 12 45 25 48 31 3 5 13 10 20 10 12
0 97 52 115 70 3 3 12 10 21 15 39 24 209 165 261 218 21 20 41 37 44 37 12 0
33 35 33 55 1 11 -8 31 -19 45 -11 14 -20 29 -20 33 0 5 -9 21 -21 35 -37 49
-69 103 -69 117 0 8 -4 15 -10 15 -5 0 -19 20 -30 44 -11 25 -24 48 -30 51 -5
3 -10 15 -10 26 0 11 -7 22 -15 25 -8 4 -15 12 -15 19 0 8 -7 20 -15 29 -9 8
-29 43 -46 78 -16 35 -34 71 -39 80 -6 10 -10 27 -10 38 0 11 -7 23 -15 26
-22 9 -22 371 0 400 8 10 15 39 15 65 0 25 5 50 10 55 10 10 25 73 37 156 3
21 11 42 19 49 8 6 14 25 14 41 0 16 6 39 14 51 14 21 27 65 45 150 5 21 14
44 20 50 6 6 11 26 11 43 0 18 5 36 10 39 6 3 10 17 10 29 0 13 7 29 15 36 8
7 15 23 15 35 0 12 7 28 15 35 8 7 15 25 15 39 0 15 7 36 15 47 8 10 15 26 15
35 0 9 7 22 15 29 8 7 15 22 15 34 0 12 7 31 15 42 8 10 15 36 15 57 0 20 5
37 10 37 6 0 10 15 10 33 0 44 10 78 21 71 5 -3 9 16 9 43 0 26 7 57 15 67 8
11 15 34 15 52 0 18 4 35 9 38 4 3 11 40 13 81 3 42 10 81 17 88 6 6 11 37 11
68 0 31 8 74 17 95 49 113 49 1018 0 1111 -10 19 -17 55 -17 90 0 32 -7 80
-15 107 -8 27 -15 66 -15 87 0 21 -4 41 -10 44 -5 3 -10 23 -10 43 0 20 -7 50
-15 66 -8 15 -15 42 -15 58 0 16 -5 39 -12 51 -11 20 -20 59 -35 144 -3 18
-11 38 -19 44 -8 6 -14 23 -14 37 0 14 -7 33 -15 42 -8 9 -16 29 -17 44 -2 16
-8 31 -15 33 -7 3 -13 15 -13 27 0 11 -7 34 -15 50 -8 15 -15 36 -15 46 0 10
-7 23 -15 30 -8 7 -15 21 -15 31 0 11 -4 19 -10 19 -5 0 -10 5 -10 12 0 6 -13
40 -30 75 -16 34 -30 67 -30 72 0 5 -7 14 -15 21 -8 7 -15 20 -15 30 0 10 -7
23 -15 30 -8 7 -15 19 -15 27 0 8 -11 29 -25 47 -14 18 -25 40 -25 50 0 9 -7
19 -15 22 -8 4 -15 13 -15 21 0 8 -11 29 -25 47 -14 18 -25 40 -25 49 0 9 -9
21 -20 27 -11 6 -20 17 -20 26 0 8 -11 27 -25 42 -14 15 -25 30 -25 35 0 4
-18 32 -40 61 -22 29 -40 56 -40 60 0 4 -12 19 -27 34 -16 16 -43 49 -60 75
-77 111 -334 386 -493 527 -41 36 -81 72 -89 81 -9 8 -62 49 -118 89 -57 41
-103 78 -103 82 0 4 -7 8 -15 8 -8 0 -15 4 -15 9 0 8 -115 88 -150 104 -8 4
-28 16 -45 27 -16 11 -38 23 -47 26 -10 4 -18 10 -18 14 0 4 -8 10 -17 14 -27
8 -56 29 -71 49 -7 9 -19 17 -27 17 -7 0 -57 23 -111 50 -54 28 -103 50 -110
50 -6 0 -17 7 -24 15 -7 8 -20 15 -30 15 -10 0 -23 7 -30 15 -7 8 -20 15 -30
15 -10 0 -23 7 -30 15 -7 8 -23 15 -35 15 -12 0 -28 7 -35 15 -7 8 -25 15 -40
15 -14 0 -30 3 -34 7 -10 11 -99 43 -117 43 -9 0 -22 7 -29 15 -7 8 -25 15
-41 15 -15 0 -31 4 -34 10 -3 5 -28 12 -56 16 -27 4 -52 11 -55 15 -3 5 -20 9
-38 9 -18 0 -45 9 -59 20 -14 11 -39 20 -56 20 -17 0 -39 4 -49 9 -21 11 -121
29 -217 40 -74 8 -105 17 -105 32 0 5 -219 9 -515 9 -296 0 -515 -4 -515 -9z"/>
<path d="M7480 19231 c-8 -5 -60 -12 -115 -15 -55 -4 -104 -12 -109 -17 -6 -5
-27 -9 -48 -9 -21 0 -46 -4 -56 -9 -9 -5 -44 -14 -77 -19 -33 -6 -78 -15 -100
-22 -22 -7 -50 -13 -62 -14 -13 -1 -26 -6 -30 -9 -3 -4 -19 -7 -34 -7 -15 0
-30 -4 -33 -9 -4 -5 -29 -12 -56 -16 -27 -4 -52 -11 -56 -16 -3 -5 -16 -9 -29
-9 -13 0 -26 -4 -29 -9 -3 -5 -22 -12 -42 -15 -19 -4 -50 -15 -68 -25 -18 -10
-47 -22 -66 -26 -19 -4 -48 -16 -66 -25 -18 -10 -34 -17 -36 -14 -3 2 -44 -16
-91 -40 -47 -24 -98 -47 -113 -50 -15 -4 -41 -17 -58 -30 -17 -13 -60 -38 -96
-55 -36 -18 -85 -45 -110 -62 -25 -16 -52 -32 -60 -36 -8 -3 -29 -17 -46 -30
-17 -13 -35 -23 -41 -23 -5 0 -20 -11 -33 -25 -13 -14 -28 -25 -33 -25 -5 0
-35 -22 -67 -50 -32 -27 -63 -50 -68 -50 -14 0 -401 -376 -423 -410 -9 -14
-31 -38 -48 -54 -17 -17 -31 -35 -31 -41 0 -6 -11 -22 -25 -35 -15 -14 -41
-47 -60 -75 -19 -27 -50 -72 -70 -100 -19 -27 -35 -55 -35 -61 0 -6 -7 -18
-16 -25 -9 -7 -20 -22 -25 -34 -6 -11 -25 -45 -43 -75 -41 -65 -166 -311 -166
-324 0 -5 -14 -39 -32 -75 -17 -36 -34 -75 -38 -86 -18 -50 -43 -112 -51 -127
-5 -10 -9 -27 -9 -37 0 -11 -5 -23 -10 -26 -6 -4 -8 -10 -5 -15 5 -9 2 -17
-23 -67 -7 -13 -12 -32 -12 -42 0 -11 -4 -22 -9 -25 -5 -3 -7 -15 -4 -25 3
-10 0 -22 -6 -25 -6 -4 -11 -20 -11 -36 0 -16 -5 -32 -11 -36 -6 -3 -9 -17 -6
-30 2 -14 0 -27 -4 -30 -5 -3 -9 -18 -9 -34 0 -16 -4 -32 -10 -35 -5 -3 -10
-26 -10 -50 0 -24 -5 -47 -10 -50 -6 -4 -7 -23 -4 -44 4 -24 2 -41 -5 -45 -6
-4 -11 -31 -11 -60 0 -28 -4 -56 -10 -62 -6 -6 -13 -109 -17 -237 -3 -125 -10
-230 -15 -233 -12 -8 -10 -222 2 -229 7 -4 10 -63 9 -162 0 -85 2 -157 5 -160
3 -4 6 -46 6 -94 0 -48 5 -91 10 -94 6 -3 10 -31 10 -62 l0 -55 -101 -106
c-56 -59 -105 -116 -110 -127 -5 -11 -23 -40 -39 -65 -16 -25 -44 -74 -61
-110 -17 -36 -40 -82 -50 -104 -11 -21 -22 -56 -25 -77 -4 -22 -11 -42 -15
-45 -5 -3 -9 -18 -9 -34 0 -16 -5 -32 -10 -35 -6 -4 -8 -15 -5 -25 3 -10 1
-21 -5 -25 -5 -3 -10 -30 -10 -60 0 -30 -5 -57 -10 -60 -13 -8 -14 -347 -1
-360 5 -6 12 -32 14 -60 11 -96 27 -176 38 -190 4 -6 11 -31 15 -55 4 -25 15
-56 24 -70 9 -14 20 -40 24 -59 6 -35 155 -344 168 -349 4 -2 15 -20 25 -40 9
-20 29 -53 45 -73 15 -20 28 -41 28 -46 0 -6 9 -18 20 -28 11 -10 20 -22 20
-28 0 -5 18 -31 40 -57 22 -26 40 -51 40 -55 0 -4 14 -24 30 -44 86 -101 110
-133 110 -146 0 -8 9 -30 20 -50 11 -20 20 -40 20 -46 0 -6 6 -25 14 -42 7
-18 21 -52 31 -77 9 -25 28 -68 41 -95 13 -28 24 -55 24 -60 0 -5 12 -35 26
-65 66 -137 74 -156 74 -165 0 -6 18 -46 40 -90 22 -44 40 -83 40 -88 0 -13
268 -546 290 -578 11 -15 20 -30 20 -34 0 -4 10 -21 22 -38 22 -31 55 -89 82
-143 8 -17 22 -36 30 -44 9 -7 16 -17 16 -22 0 -5 18 -31 40 -57 22 -26 40
-51 40 -56 0 -4 25 -36 55 -70 30 -35 55 -67 55 -71 0 -4 30 -40 68 -81 37
-40 89 -97 116 -128 27 -30 54 -55 59 -55 9 0 108 -88 192 -170 17 -17 35 -30
41 -30 6 0 21 -12 35 -26 13 -14 33 -30 44 -35 11 -5 47 -29 80 -53 33 -25 64
-45 68 -45 5 -1 24 -13 44 -29 55 -42 353 -202 376 -202 9 0 73 -28 150 -66
16 -8 37 -14 47 -14 10 0 21 -4 24 -9 4 -5 24 -12 46 -16 22 -4 42 -11 46 -16
3 -5 16 -9 29 -9 13 0 26 -4 29 -9 4 -5 24 -12 46 -16 22 -4 42 -10 45 -15 3
-4 32 -11 65 -15 33 -4 63 -11 66 -16 3 -5 18 -9 34 -9 16 0 31 -4 34 -9 4 -5
40 -12 81 -16 42 -4 78 -11 81 -16 3 -5 24 -9 48 -9 23 0 46 -3 50 -7 4 -4 28
-8 54 -10 186 -11 228 -15 237 -24 13 -13 442 -12 450 1 3 6 46 10 95 10 51 0
92 4 95 10 4 6 28 11 53 10 62 0 144 10 157 20 6 5 43 12 83 15 40 4 75 12 78
16 3 5 18 9 34 9 16 0 31 4 34 9 3 5 30 12 61 16 30 3 57 11 60 16 4 5 16 9
29 9 12 0 26 3 30 7 4 5 11 8 14 8 11 1 55 15 77 25 11 5 47 16 80 26 33 10
71 24 85 31 14 7 30 13 35 13 6 0 42 15 80 34 39 18 107 51 152 72 46 22 83
42 83 45 0 3 25 17 55 30 30 13 55 27 55 31 0 4 17 15 38 24 20 10 53 30 73
46 20 15 41 28 46 28 6 0 18 9 28 20 10 11 23 20 28 20 5 0 34 20 63 45 28 25
58 45 64 45 17 0 520 505 520 522 0 8 12 25 26 39 15 13 41 47 59 74 18 28 40
57 49 64 9 7 16 19 16 26 0 8 10 26 23 42 26 33 41 56 62 98 9 17 33 59 54 95
64 106 381 745 381 767 0 7 14 38 30 70 17 31 30 64 30 73 0 8 9 26 20 40 11
14 20 33 20 42 0 10 10 37 22 60 13 24 23 47 23 53 0 5 7 26 16 45 9 19 24 55
34 80 10 25 25 61 33 80 9 19 17 40 17 45 4 32 45 94 136 203 30 37 59 74 62
82 9 20 33 56 84 130 24 33 43 65 43 70 0 6 4 10 10 10 5 0 21 24 35 53 14 28
44 83 66 122 22 38 42 80 45 92 4 13 10 23 15 23 5 0 9 9 9 21 0 11 11 39 24
63 13 23 27 58 30 77 7 32 18 63 36 100 5 9 11 41 15 73 4 31 11 59 16 62 5 3
9 20 9 38 0 18 3 36 7 40 7 7 10 51 19 266 4 102 2 151 -7 167 -7 12 -9 37 -6
57 3 20 1 38 -4 41 -5 4 -9 24 -9 45 0 21 -4 41 -9 44 -5 4 -12 25 -16 49 -3
23 -14 60 -24 82 -70 154 -128 265 -152 296 -16 20 -29 40 -29 44 0 11 -54 75
-132 158 l-68 71 0 67 c0 37 5 71 10 74 6 3 10 48 10 100 0 52 4 97 10 100 6
4 10 145 10 390 0 245 -4 386 -10 390 -5 3 -10 42 -10 85 0 46 -5 82 -11 86
-6 3 -10 29 -8 58 1 28 0 58 -4 66 -5 14 -9 36 -23 150 -4 25 -10 50 -15 56
-5 6 -7 18 -3 27 3 8 1 18 -5 22 -6 3 -11 24 -11 45 0 21 -4 41 -9 44 -4 3
-11 28 -15 55 -4 28 -11 53 -16 56 -6 3 -10 19 -10 35 0 16 -5 32 -11 35 -6 4
-8 13 -5 21 3 7 1 16 -4 19 -6 4 -10 15 -10 26 0 19 -2 26 -33 87 -9 19 -17
42 -17 52 0 10 -5 22 -10 25 -6 4 -10 12 -8 18 2 12 -10 39 -66 157 -17 36
-31 70 -32 75 -2 18 -17 49 -38 80 -12 17 -41 71 -66 120 -25 50 -60 112 -78
138 -17 26 -32 51 -32 54 0 10 -48 80 -90 133 -35 44 -53 71 -66 100 -4 8 -42
54 -86 102 -43 47 -78 90 -78 95 0 17 -366 363 -384 363 -4 0 -19 14 -33 30
-13 17 -30 30 -37 30 -7 0 -21 10 -32 21 -10 12 -28 25 -39 30 -11 5 -47 29
-80 53 -33 25 -64 45 -68 45 -5 1 -23 11 -40 24 -18 12 -41 28 -52 34 -39 24
-401 201 -445 218 -25 10 -59 24 -77 31 -17 8 -36 14 -42 14 -6 0 -19 4 -29 9
-39 21 -91 41 -105 41 -9 0 -19 5 -22 10 -3 6 -19 10 -35 10 -16 0 -32 5 -35
10 -4 6 -12 10 -18 9 -13 -2 -41 7 -68 21 -9 4 -41 11 -73 15 -31 4 -59 11
-62 16 -3 5 -18 9 -34 9 -16 0 -31 4 -34 9 -3 5 -39 12 -81 16 -41 4 -77 11
-81 16 -3 5 -23 9 -44 9 -21 0 -41 4 -44 9 -3 5 -53 12 -111 16 -58 4 -108 11
-111 16 -7 11 -1124 11 -1144 0z"/>
<path d="M6890 8980 c-396 -14 -643 -29 -735 -45 -49 -9 -137 -21 -195 -26
-247 -21 -516 -83 -595 -136 -11 -7 -36 -13 -57 -13 -20 0 -40 -4 -43 -10 -3
-5 -19 -10 -35 -10 -16 0 -31 -4 -34 -9 -3 -4 -34 -12 -68 -15 -35 -4 -67 -11
-73 -16 -10 -7 -47 -16 -110 -26 -71 -10 -101 -17 -110 -24 -5 -4 -34 -11 -62
-15 -29 -4 -55 -11 -59 -16 -3 -5 -18 -9 -34 -9 -16 0 -31 -4 -34 -9 -3 -5
-33 -12 -66 -16 -33 -4 -63 -11 -66 -16 -3 -5 -18 -9 -34 -9 -16 0 -31 -4 -34
-9 -3 -4 -28 -11 -55 -15 -28 -4 -53 -11 -56 -16 -3 -6 -19 -10 -34 -10 -15 0
-31 -3 -34 -7 -4 -3 -17 -8 -30 -9 -47 -6 -92 -17 -102 -24 -5 -5 -28 -11 -50
-15 -22 -3 -51 -11 -65 -17 -53 -23 -66 -27 -105 -33 -22 -4 -44 -10 -50 -15
-5 -4 -31 -11 -57 -14 -26 -4 -50 -11 -53 -17 -4 -5 -19 -9 -35 -9 -16 0 -31
-4 -34 -9 -3 -5 -26 -12 -51 -15 -24 -4 -47 -11 -50 -17 -4 -5 -19 -9 -35 -9
-16 0 -31 -4 -34 -9 -4 -5 -24 -12 -46 -16 -22 -4 -42 -10 -45 -15 -3 -4 -25
-11 -50 -14 -24 -4 -47 -11 -50 -17 -4 -5 -19 -9 -35 -9 -16 0 -31 -4 -34 -9
-3 -5 -23 -12 -43 -16 -21 -4 -42 -10 -48 -14 -5 -4 -37 -16 -70 -25 -33 -10
-69 -21 -80 -26 -11 -4 -40 -15 -65 -25 -25 -10 -54 -21 -65 -26 -17 -6 -56
-19 -75 -24 -42 -11 -68 -20 -89 -31 -14 -8 -32 -14 -39 -14 -7 0 -20 -4 -30
-9 -34 -19 -90 -41 -101 -41 -6 0 -19 -4 -29 -9 -9 -5 -37 -17 -62 -26 -25
-10 -59 -24 -77 -31 -17 -8 -36 -14 -41 -14 -6 0 -27 -8 -49 -19 -61 -30 -146
-66 -147 -63 -1 2 -41 -17 -90 -42 -50 -25 -94 -46 -99 -46 -13 0 -366 -177
-385 -193 -8 -6 -36 -23 -62 -37 -93 -50 -148 -83 -240 -147 -33 -24 -64 -43
-69 -43 -4 0 -18 -11 -31 -25 -13 -14 -27 -25 -31 -25 -12 0 -38 -23 -191
-171 -76 -73 -138 -137 -138 -142 0 -5 -20 -33 -45 -61 -25 -29 -45 -58 -45
-63 0 -5 -9 -18 -20 -28 -11 -10 -20 -22 -20 -28 0 -5 -13 -26 -30 -47 -16
-21 -30 -41 -30 -44 0 -3 -15 -26 -34 -51 -19 -24 -38 -55 -41 -67 -4 -13 -17
-36 -29 -53 -18 -25 -89 -166 -202 -400 -13 -28 -24 -58 -24 -67 0 -9 -5 -20
-10 -23 -6 -4 -8 -10 -5 -15 3 -5 -3 -24 -14 -43 -10 -18 -22 -49 -26 -68 -4
-19 -10 -38 -14 -44 -14 -20 -32 -85 -26 -94 3 -5 1 -12 -5 -16 -5 -3 -10 -19
-10 -35 0 -16 -4 -31 -9 -34 -11 -7 -24 -64 -22 -98 1 -14 -2 -29 -8 -33 -6
-3 -11 -21 -11 -39 0 -17 -4 -36 -9 -41 -6 -6 -13 -52 -17 -103 -4 -51 -11
-95 -15 -98 -5 -3 -9 -32 -9 -65 0 -33 -4 -59 -10 -59 -6 0 -10 -125 -10 -355
0 -230 4 -355 10 -355 6 0 10 -30 10 -69 0 -39 4 -72 9 -75 4 -3 12 -51 15
-106 4 -55 12 -102 17 -105 5 -4 9 -19 9 -35 0 -16 5 -32 10 -35 6 -4 10 -14
9 -23 -4 -26 3 -48 62 -186 29 -66 49 -94 129 -176 69 -71 111 -106 152 -125
31 -15 62 -33 69 -41 6 -8 20 -14 29 -14 10 0 31 -6 47 -14 93 -46 116 -55
123 -51 5 3 11 1 15 -5 3 -5 19 -10 35 -10 16 0 31 -4 34 -9 7 -11 64 -24 99
-21 15 1 27 -3 27 -9 0 -13 14156 -16 14164 -2 3 4 29 11 57 14 28 4 56 10 63
15 6 5 25 12 41 15 52 9 64 13 71 20 4 4 15 7 24 7 9 0 37 11 61 23 24 13 56
27 70 30 14 4 56 27 93 52 37 25 71 45 75 45 10 0 131 124 147 151 7 13 18 34
23 47 6 12 14 22 18 22 10 0 33 49 33 70 0 9 7 25 15 36 8 10 15 31 15 46 0
15 4 29 9 32 11 7 24 64 22 98 -1 14 2 29 8 33 6 3 11 25 11 49 0 23 4 46 9
51 5 6 13 65 17 133 5 93 10 122 20 122 20 0 21 685 1 693 -10 4 -16 39 -21
124 -4 65 -11 122 -17 128 -5 5 -9 26 -9 46 0 21 -5 41 -11 45 -6 3 -9 20 -7
36 3 16 1 31 -4 34 -4 3 -8 18 -8 34 0 16 -4 31 -9 34 -8 5 -13 26 -24 101 -4
20 -11 41 -27 80 -5 11 -12 40 -16 65 -7 45 -9 51 -38 107 -9 17 -16 40 -16
50 0 10 -5 24 -12 31 -7 7 -12 27 -13 45 0 17 -4 34 -10 36 -19 8 -34 36 -24
46 12 12 12 28 0 20 -13 -8 -45 61 -35 76 4 7 3 9 -4 5 -6 -3 -16 2 -21 13
-15 27 -14 36 4 21 8 -6 2 13 -13 44 -15 31 -31 56 -36 56 -4 0 -2 -10 6 -22
16 -25 29 -58 24 -58 -10 0 -44 80 -37 85 10 6 -9 65 -21 65 -4 0 -8 6 -8 14
0 8 -7 17 -16 20 -12 5 -14 3 -8 -7 5 -7 1 -4 -9 7 -10 10 -15 26 -12 35 3 8
3 12 -1 9 -11 -12 -56 52 -59 83 -1 17 -8 36 -16 42 -11 10 -11 9 0 -8 8 -11
-2 -2 -22 20 -39 43 -52 82 -14 43 12 -13 16 -17 10 -8 -7 9 -13 22 -13 28 0
7 -8 12 -18 12 -24 0 -65 56 -58 78 4 11 -4 23 -22 36 -27 19 -97 96 -74 82
31 -19 7 22 -45 75 -68 70 -97 80 -33 12 40 -42 38 -41 -13 7 -53 50 -77 79
-42 50 36 -30 10 4 -46 60 -34 34 -67 59 -74 56 -7 -2 -25 9 -41 25 -15 16
-33 29 -39 29 -6 0 -22 12 -36 27 -13 15 -16 21 -6 14 9 -7 17 -11 17 -8 0 2
-17 17 -37 33 -33 24 -35 24 -18 4 14 -16 16 -22 5 -18 -8 2 -19 14 -25 26 -5
12 -16 24 -23 27 -8 3 -10 0 -6 -8 5 -8 2 -8 -9 2 -9 7 -14 18 -10 24 4 7 0 8
-12 4 -22 -9 -46 9 -38 29 3 9 -1 14 -12 14 -10 0 -14 -5 -9 -12 4 -8 3 -10
-2 -5 -5 5 -9 14 -9 20 0 7 -24 24 -54 39 -29 15 -60 33 -69 40 -12 10 -14 10
-8 1 14 -25 -24 -13 -40 12 -16 25 -42 37 -28 13 5 -7 -3 -5 -16 4 -14 9 -24
21 -23 26 1 6 -6 8 -16 5 -10 -3 -22 1 -26 8 -6 8 -4 10 5 4 9 -5 11 -4 6 4
-4 6 -11 9 -16 6 -11 -7 -104 34 -96 42 3 3 17 -2 30 -11 32 -20 42 -21 22 -1
-8 8 -17 15 -20 15 -3 0 -42 18 -88 40 -56 28 -84 37 -89 29 -4 -8 -10 -6 -16
6 -6 10 -16 15 -24 13 -14 -5 -89 27 -89 38 0 3 5 2 12 -2 7 -5 8 -3 4 5 -5 7
-15 10 -23 6 -9 -3 -25 3 -36 12 -11 10 -17 12 -13 5 6 -10 4 -11 -10 -4 -11
5 -40 19 -66 32 -27 12 -48 23 -48 25 0 6 40 -8 46 -16 3 -5 13 -9 22 -9 9 0
-4 11 -30 25 -26 14 -53 25 -60 25 -7 0 -26 7 -42 15 -16 9 -31 14 -33 11 -2
-2 12 -11 32 -20 19 -9 35 -19 35 -22 0 -3 -3 -3 -7 -1 -5 2 -25 11 -46 21
-20 9 -35 22 -31 27 4 7 -3 10 -17 8 -31 -3 -69 9 -69 23 0 6 -9 8 -20 5 -11
-3 -23 0 -27 5 -4 7 -1 8 7 3 8 -5 11 -4 7 3 -4 5 -16 8 -27 5 -12 -3 -20 0
-20 6 0 7 -8 11 -17 10 -18 -2 -34 3 -90 27 -17 8 -38 14 -46 14 -9 0 -18 4
-22 9 -3 6 7 6 27 1 34 -10 54 -5 22 5 -10 4 -27 11 -36 16 -10 5 -26 9 -36 9
-9 0 -28 7 -41 16 -13 9 -51 18 -89 21 -37 2 -71 9 -77 15 -7 8 -6 9 4 3 9 -5
12 -4 7 3 -3 6 -24 10 -45 10 -45 0 -64 8 -55 24 4 7 2 8 -5 4 -6 -4 -14 0
-17 8 -3 9 -10 16 -16 16 -5 0 -7 -4 -4 -9 10 -16 -38 1 -52 18 -11 14 -14 14
-22 1 -9 -14 -14 -7 -11 13 1 5 -3 5 -9 2 -18 -11 -60 4 -54 19 4 9 -7 16 -33
21 -21 4 -42 10 -48 15 -5 4 -34 11 -64 15 -40 5 -52 4 -46 -5 5 -8 2 -9 -11
-1 -11 5 -27 12 -37 15 -10 3 -15 10 -12 16 3 5 3 10 -2 11 -4 0 -18 2 -31 5
-13 2 -21 0 -18 -5 12 -18 -46 3 -60 23 -12 17 -16 18 -23 7 -5 -8 -16 -11
-26 -8 -9 4 -14 11 -11 15 3 5 -6 7 -19 4 -16 -3 -27 1 -30 11 -4 10 -21 15
-51 15 -49 1 -67 8 -59 23 6 9 -16 12 -71 9 -18 -1 -35 3 -38 8 -3 6 -29 13
-56 17 -27 4 -52 11 -56 16 -3 5 -16 9 -29 9 -13 0 -27 5 -30 10 -8 12 -8 12
34 0 19 -5 30 -6 25 -2 -13 11 -72 29 -121 37 -24 4 -45 11 -49 16 -3 5 -13 9
-22 9 -15 0 -15 -2 -2 -10 12 -8 9 -10 -12 -10 -15 0 -29 4 -32 9 -3 5 -32 12
-63 16 -32 4 -62 10 -68 15 -13 9 -60 22 -135 36 -19 4 -39 10 -45 14 -5 4
-34 11 -62 15 -29 4 -55 11 -59 16 -3 5 -18 9 -34 9 -16 0 -31 4 -34 9 -3 5
-32 12 -63 16 -32 4 -62 10 -68 15 -12 9 -70 21 -102 20 -12 0 -25 5 -28 10
-3 6 -19 10 -35 10 -16 0 -39 4 -52 9 -13 6 -58 17 -101 26 -42 9 -75 21 -72
26 6 9 -7 12 -65 10 -27 0 -30 1 -16 7 23 10 -147 46 -294 62 -52 6 -122 15
-155 20 -33 5 -127 14 -210 20 -82 6 -208 20 -280 31 -71 11 -202 22 -290 24
-88 3 -230 10 -315 15 -85 5 -247 10 -360 10 -113 -1 -284 5 -380 11 -96 7
-353 14 -570 16 -217 2 -492 6 -610 7 -118 2 -316 0 -440 -4z"/>
</g>
</svg>
