<?xml version="1.0" standalone="no"?>
<!DOCTYPE svg PUBLIC "-//W3C//DTD SVG 20010904//EN"
 "http://www.w3.org/TR/2001/REC-SVG-20010904/DTD/svg10.dtd">
<svg version="1.0" xmlns="http://www.w3.org/2000/svg"
 width="1871.000000pt" height="1871.000000pt" viewBox="0 0 1871.000000 1871.000000"
 preserveAspectRatio="xMidYMid meet">
<metadata>
Created by potrace 1.16, written by Peter Selinger 2001-2019
</metadata>
<g transform="translate(0.000000,1871.000000) scale(0.100000,-0.100000)">
<path d="M8085 17805 c-64 -25 -92 -30 -370 -70 -528 -76 -910 -190 -1020
-305 -28 -29 -29 -33 -36 -177 -4 -82 -8 -266 -8 -409 l-1 -262 -37 -14 c-42
-16 -183 -52 -368 -94 -202 -45 -508 -148 -680 -229 -87 -41 -180 -75 -204
-75 -14 0 -62 -18 -107 -39 -44 -21 -116 -51 -160 -66 -175 -60 -353 -143
-529 -245 -50 -29 -106 -61 -125 -72 -19 -11 -118 -75 -220 -143 -506 -336
-749 -575 -846 -834 -50 -134 -66 -232 -71 -451 l-5 -205 -172 -175 c-248
-253 -344 -377 -435 -565 -110 -225 -149 -411 -157 -760 -5 -244 -15 -355 -35
-399 -8 -17 -25 -28 -56 -36 -42 -10 -44 -13 -39 -37 6 -23 -10 -42 -159 -187
-91 -89 -165 -167 -165 -174 0 -9 -79 -110 -125 -158 -5 -6 -98 -103 -206
-215 -399 -416 -529 -563 -555 -625 -9 -23 -58 -82 -121 -145 -58 -59 -103
-111 -100 -116 3 -5 -19 -34 -49 -64 -51 -50 -113 -143 -277 -422 -27 -45 -96
-174 -154 -287 -130 -253 -200 -378 -226 -407 -15 -17 -19 -31 -14 -63 5 -36
2 -41 -21 -53 -23 -11 -27 -18 -25 -52 2 -25 -3 -45 -15 -58 -15 -17 -17 -47
-20 -237 -2 -177 0 -225 12 -254 8 -20 19 -36 24 -36 5 0 7 -14 4 -30 -4 -27
-1 -30 22 -30 18 0 24 -4 20 -15 -25 -63 473 -500 613 -537 24 -7 68 -34 105
-65 224 -188 602 -451 680 -475 29 -8 43 -20 52 -42 8 -17 58 -76 112 -131 98
-99 179 -210 244 -335 95 -185 134 -206 409 -220 194 -11 230 -19 281 -64 72
-64 257 -139 486 -197 112 -28 147 -32 262 -33 l134 -1 25 29 c34 40 27 91
-18 126 -66 53 -124 119 -186 213 -77 117 -146 250 -141 274 6 31 287 166 499
241 48 17 119 47 157 66 146 73 379 143 441 131 95 -18 210 -88 255 -155 34
-51 33 -72 -5 -111 -30 -31 -31 -34 -24 -94 6 -58 5 -64 -14 -70 -19 -6 -21
-14 -21 -79 0 -46 -6 -84 -16 -104 -25 -51 -39 -327 -26 -518 13 -181 17 -198
43 -210 18 -9 18 -10 0 -49 -11 -24 -52 -71 -105 -119 -109 -99 -188 -196
-251 -308 l-48 -87 -30 37 c-39 49 -77 130 -77 165 0 62 -84 328 -117 374 -21
29 -29 33 -73 33 -39 0 -57 -6 -92 -33 -86 -65 -166 -274 -188 -497 -23 -224
-38 -296 -63 -312 -7 -4 -28 -8 -48 -8 -116 0 -191 -155 -236 -485 -49 -360
11 -825 139 -1079 61 -122 177 -240 309 -316 38 -22 101 -59 140 -83 134 -81
168 -93 484 -177 285 -77 438 -138 650 -264 164 -97 194 -113 330 -182 276
-140 576 -268 800 -340 61 -20 151 -57 200 -84 92 -49 154 -70 261 -91 l61
-11 6 -439 c7 -486 6 -482 73 -537 54 -45 140 -93 228 -128 158 -63 556 -139
1118 -214 122 -16 232 -35 250 -44 62 -32 201 -36 1164 -36 1000 0 1129 4
1199 40 22 11 48 20 59 20 26 0 337 46 476 71 469 84 613 124 801 220 121 63
119 59 130 251 4 89 8 283 9 430 l0 267 58 17 c352 100 433 128 822 287 453
184 737 315 830 382 64 46 192 115 450 243 138 68 260 136 315 176 113 82 241
198 262 240 29 58 109 146 457 506 233 241 253 275 263 446 7 116 1 150 -26
159 -14 4 -19 14 -18 32 1 19 -4 28 -18 32 -13 4 -21 16 -22 33 -1 15 -19 65
-39 110 -42 91 -45 121 -24 233 16 87 17 361 1 517 -12 126 -62 319 -106 413
-28 59 -75 105 -107 105 -30 0 -79 -57 -125 -146 -38 -74 -52 -116 -83 -254
-7 -30 -35 -101 -61 -158 -27 -57 -49 -111 -49 -118 0 -41 -72 -16 -158 54
-123 100 -311 358 -383 523 -128 294 -166 467 -176 789 -6 220 1 267 45 298
66 46 290 75 687 88 263 9 451 -19 588 -88 l38 -19 -21 -32 c-11 -18 -39 -68
-61 -111 -55 -111 -118 -195 -229 -311 -53 -55 -106 -115 -119 -132 -32 -46
-25 -83 19 -106 30 -16 56 -18 195 -15 142 3 165 6 200 25 47 25 112 47 224
73 91 22 260 83 306 110 65 39 152 55 365 69 211 14 278 53 553 318 100 97
223 206 272 243 50 37 126 100 170 140 196 179 362 313 495 401 104 68 543
484 539 511 -1 7 5 29 14 48 29 65 39 187 35 435 -3 213 -5 244 -21 269 -12
18 -18 43 -16 69 3 66 0 74 -24 81 -19 4 -23 11 -19 34 3 23 -1 30 -22 40 -14
6 -26 19 -26 28 0 51 -280 607 -415 824 -62 100 -135 242 -135 263 0 16 -35
48 -72 67 -18 8 -28 21 -28 35 0 24 -12 42 -105 151 -33 40 -86 118 -119 175
-32 57 -130 212 -217 345 -87 133 -165 257 -174 276 -8 20 -28 46 -44 59 -17
13 -44 34 -61 47 -17 14 -30 33 -30 46 0 13 -21 43 -56 76 -154 152 -213 343
-264 860 -15 142 -51 284 -93 365 -22 41 -68 96 -149 178 -66 65 -118 125
-118 136 0 10 -27 43 -60 74 -33 30 -60 62 -60 70 0 27 -76 143 -251 384 l-86
118 -7 230 c-18 560 -60 764 -182 882 -31 31 -54 61 -54 73 0 34 -18 58 -54
75 -35 17 -165 135 -396 360 -146 142 -191 179 -230 188 -14 4 -72 35 -130 69
-58 35 -126 71 -150 82 -101 41 -117 50 -174 88 -52 36 -243 128 -336 163 -19
8 -73 30 -120 50 -79 33 -114 47 -275 110 -153 60 -194 74 -231 81 -21 4 -70
20 -109 37 -241 101 -516 171 -1160 295 l-90 17 -7 40 c-4 22 -10 173 -13 335
-3 162 -8 341 -11 396 l-6 102 -106 50 c-181 85 -499 165 -947 236 -88 15
-189 31 -225 37 -36 6 -98 21 -138 35 l-72 24 -1253 -1 -1252 -1 -60 -23z
m1605 -95 c124 -6 320 -20 435 -31 116 -10 237 -21 270 -24 33 -4 139 -15 235
-26 96 -10 200 -22 230 -25 119 -12 359 -53 391 -67 33 -13 73 -23 398 -102
162 -40 279 -90 307 -132 15 -24 19 -65 28 -318 13 -395 13 -14770 -1 -15223
l-10 -332 -28 -30 c-100 -104 -428 -200 -1095 -319 -522 -94 -2211 -94 -2745
0 -192 34 -622 117 -720 140 -300 69 -408 100 -481 137 l-41 21 -6 1943 c-4
1069 -10 4654 -13 7968 l-7 6025 59 29 c79 38 174 68 319 101 66 15 179 44
250 65 183 54 586 117 965 150 63 6 162 15 220 21 136 15 519 36 685 38 72 0
231 -4 355 -9z m-4440 -1961 c-322 -263 -685 -626 -801 -801 -31 -45 -37 -78
-16 -78 22 0 111 47 207 110 261 170 698 329 736 268 9 -14 -19 -37 -162 -133
-145 -98 -304 -234 -436 -376 -198 -212 -208 -234 -168 -359 12 -39 25 -72 29
-74 3 -2 44 27 91 66 216 177 644 482 805 573 l50 29 -72 -80 c-39 -43 -100
-107 -135 -140 -200 -193 -390 -429 -405 -505 -6 -34 13 -61 61 -86 53 -28
108 -13 296 79 217 106 313 148 442 193 l100 35 -27 -33 c-15 -17 -91 -99
-169 -181 -205 -216 -220 -239 -190 -301 9 -21 28 -41 43 -47 16 -6 99 -7 221
-2 220 7 226 6 291 -63 51 -54 87 -115 116 -197 39 -112 41 -162 8 -252 -40
-109 -71 -161 -135 -225 -74 -75 -161 -115 -315 -144 -66 -13 -132 -28 -148
-34 -64 -25 -54 -92 38 -241 147 -240 148 -245 47 -290 -113 -51 -204 -65
-412 -64 -179 1 -202 3 -280 26 -126 38 -250 90 -495 207 -188 91 -252 115
-351 135 -150 29 -421 42 -567 26 -191 -19 -287 -63 -354 -163 -40 -59 -52
-117 -64 -297 -13 -198 -23 -229 -117 -347 -100 -127 -134 -181 -166 -273 -63
-177 -137 -299 -229 -380 -54 -48 -58 -66 -19 -81 65 -25 379 43 577 125 129
53 288 151 412 253 77 63 127 97 160 107 15 5 58 -6 133 -33 104 -39 170 -51
170 -33 0 5 -24 25 -53 45 -161 111 -343 360 -355 487 -3 39 0 49 23 73 15 15
31 27 34 27 19 0 64 -65 109 -157 83 -170 225 -353 273 -353 31 0 40 41 50
218 13 246 42 292 183 292 l68 0 -4 -202 c-4 -195 -5 -205 -30 -253 -15 -27
-38 -65 -52 -84 -14 -19 -26 -46 -26 -59 0 -29 18 -25 100 20 154 85 319 219
376 305 20 32 38 59 39 61 2 2 39 -20 82 -47 126 -80 167 -91 383 -97 220 -7
431 7 515 35 33 11 124 49 203 85 78 36 147 66 152 66 24 0 4 -28 -72 -104
-165 -163 -485 -375 -698 -463 -47 -19 -100 -44 -119 -56 -31 -19 -33 -23 -29
-66 3 -33 19 -70 52 -125 26 -43 45 -80 43 -83 -6 -5 -515 33 -617 46 -36 5
-68 6 -72 2 -10 -8 131 -118 225 -175 43 -25 147 -82 231 -126 85 -44 180 -93
212 -110 44 -23 51 -29 29 -25 -16 2 -102 14 -190 25 -364 46 -822 159 -997
246 -128 64 -142 39 -35 -65 170 -167 509 -372 787 -477 134 -51 160 -65 160
-85 0 -24 -46 -33 -139 -24 -110 9 -469 55 -516 65 -22 5 -71 14 -110 20 -38
5 -113 20 -165 31 -80 18 -130 31 -282 75 -34 10 -18 -24 30 -63 225 -187 480
-295 952 -403 270 -61 307 -70 425 -95 199 -44 329 -76 339 -86 13 -12 -35
-28 -134 -46 -214 -38 -950 10 -1496 98 -137 21 -174 23 -174 9 0 -27 292
-148 473 -196 232 -61 478 -81 1097 -89 250 -3 565 -8 700 -11 l245 -6 -50
-21 c-66 -26 -148 -49 -325 -91 -248 -58 -373 -82 -845 -160 -221 -37 -326
-63 -333 -84 -4 -14 56 -42 92 -42 44 0 169 -51 231 -94 75 -52 125 -123 125
-178 0 -88 23 -94 200 -49 325 83 682 218 868 329 57 35 102 50 102 35 0 -49
-235 -262 -347 -315 -45 -21 -56 -43 -25 -52 9 -2 68 -16 130 -31 95 -22 148
-43 345 -139 l232 -113 -180 -6 c-198 -8 -381 -29 -398 -46 -16 -16 14 -44 91
-81 126 -62 226 -135 355 -259 62 -59 105 -117 95 -127 -5 -4 -154 33 -176 45
-63 33 -385 71 -615 71 -205 0 -188 -13 118 -91 211 -54 387 -128 546 -231 88
-55 169 -137 169 -169 0 -28 -23 -22 -149 38 -219 104 -333 150 -539 218 -181
59 -167 26 48 -119 169 -113 255 -210 131 -147 -54 28 -221 67 -401 93 -140
21 -191 23 -530 23 -306 0 -400 -3 -510 -18 -160 -22 -213 -34 -207 -50 6 -19
44 -24 247 -31 335 -12 980 -96 1277 -166 45 -11 91 -20 101 -20 28 0 175 -74
271 -136 91 -60 204 -162 226 -205 29 -55 33 -181 34 -980 l1 -816 -67 -27
c-42 -16 -102 -30 -157 -35 -144 -14 -152 -50 -27 -141 102 -74 102 -89 -1
-141 -175 -88 -419 -171 -543 -183 -97 -10 -201 -35 -215 -51 -19 -23 -1 -54
51 -92 57 -40 76 -68 55 -76 -8 -3 -99 -9 -203 -12 -103 -3 -211 -8 -240 -11
l-52 -5 -10 -52 c-6 -29 -15 -89 -21 -135 -6 -46 -13 -89 -16 -96 -3 -9 -28
-10 -97 -4 -164 13 -291 30 -326 44 -68 28 -81 17 -81 -66 0 -58 -17 -79 -57
-73 -71 12 -174 48 -239 84 -39 21 -81 39 -93 39 -25 0 -26 -15 -6 -102 8 -35
21 -126 30 -203 9 -77 18 -149 21 -160 4 -11 -56 43 -133 120 -127 129 -183
194 -300 349 -54 70 -73 73 -73 10 0 -117 84 -494 154 -693 15 -41 25 -79 23
-85 -4 -13 -89 94 -138 174 -101 165 -183 466 -199 732 -9 143 -6 178 15 178
6 0 34 -7 61 -15 134 -42 244 -37 475 19 79 19 198 42 264 50 184 25 235 44
341 126 34 27 80 58 102 69 46 23 146 41 238 41 90 0 243 35 345 79 105 46
195 105 299 197 100 88 221 175 322 231 170 93 323 225 404 348 l39 58 -1 181
c-1 189 -12 266 -70 526 -72 317 -101 379 -259 564 -51 59 -165 157 -240 204
-115 73 -231 109 -510 154 -128 21 -172 23 -505 23 -348 0 -373 -1 -550 -28
-102 -15 -201 -32 -220 -37 -20 -5 -67 -16 -105 -23 -146 -29 -413 -108 -575
-171 -104 -40 -298 -129 -498 -230 -186 -93 -226 -114 -292 -155 -66 -40 -99
-43 -212 -20 -57 11 -128 33 -157 48 -50 25 -58 34 -95 107 -59 116 -136 217
-400 524 -64 74 -123 150 -132 169 l-16 34 42 35 c32 27 55 63 98 151 49 101
68 127 137 196 137 138 353 262 492 285 37 7 78 14 90 16 12 2 27 14 34 25 6
12 15 101 20 198 14 292 27 375 74 471 17 36 38 75 45 87 8 12 11 25 8 29 -10
9 -126 -76 -231 -168 -105 -93 -153 -111 -352 -134 -142 -17 -382 -56 -485
-80 -521 -122 -865 -252 -1040 -395 -58 -47 -84 -55 -115 -35 -30 20 -67 90
-90 171 -22 74 -15 212 14 302 28 86 94 215 143 276 22 29 71 109 108 179 66
123 125 221 255 423 36 55 65 104 65 108 1 24 194 271 412 527 383 451 611
713 978 1125 248 279 332 383 367 453 l26 53 -19 97 c-27 140 -25 350 4 500
57 286 216 614 392 804 66 73 190 170 337 263 75 48 92 62 88 79 -2 12 -7 77
-10 146 -4 69 -13 184 -20 255 -15 149 -26 115 99 285 108 146 219 271 392
440 173 169 298 274 353 297 61 26 65 29 71 54 4 15 15 26 30 29 33 7 78 32
169 93 94 63 302 164 401 193 95 29 112 29 80 3z m8389 -216 c493 -291 791
-561 961 -868 21 -38 57 -125 81 -193 23 -68 58 -149 79 -181 70 -109 183
-172 350 -197 105 -16 162 -37 191 -70 9 -11 40 -62 69 -114 131 -236 233
-383 345 -497 55 -56 97 -113 135 -178 125 -219 214 -338 367 -491 97 -98 104
-119 114 -319 10 -199 21 -295 54 -460 45 -222 80 -295 245 -510 144 -189 244
-331 608 -873 149 -221 280 -422 290 -445 11 -23 52 -91 92 -152 40 -60 91
-146 112 -190 21 -44 53 -99 72 -121 29 -37 287 -491 343 -604 76 -155 136
-385 119 -455 -6 -25 -7 -25 -41 -11 -20 9 -61 33 -92 56 -31 22 -65 40 -76
40 -11 0 -45 -17 -74 -37 -38 -26 -58 -34 -67 -28 -7 6 -35 27 -62 47 -46 34
-308 171 -417 217 -79 33 -194 53 -317 54 -158 1 -228 -23 -420 -147 -47 -30
-129 -82 -182 -116 -54 -34 -98 -65 -98 -70 0 -4 44 -16 98 -25 212 -38 356
-104 485 -225 119 -111 218 -275 289 -479 60 -171 39 -231 -127 -366 -54 -44
-175 -152 -267 -240 -227 -216 -290 -268 -375 -311 -58 -30 -86 -38 -145 -42
-162 -10 -316 63 -753 352 -391 260 -423 279 -520 315 -44 16 -117 43 -163 60
-177 66 -423 92 -852 90 -543 -2 -686 -26 -1026 -167 -166 -69 -194 -84 -247
-136 -58 -56 -110 -135 -186 -285 -182 -357 -289 -801 -279 -1156 5 -169 17
-198 124 -290 180 -153 474 -326 874 -514 124 -59 226 -102 470 -201 111 -45
537 -179 630 -199 25 -5 126 -17 225 -26 481 -44 464 -42 524 -72 79 -40 96
-76 96 -210 0 -129 -7 -139 -146 -211 -204 -106 -251 -151 -482 -461 -208
-278 -272 -331 -361 -297 -23 9 -54 29 -69 44 -112 117 -107 469 11 812 17 47
46 131 66 188 40 115 42 127 21 136 -15 6 -121 -24 -245 -69 -155 -56 -329
-92 -496 -102 -117 -7 -135 -1 -165 59 -41 80 -8 198 81 292 27 29 50 58 50
65 0 28 -53 31 -185 11 -370 -58 -567 -53 -613 17 -37 58 -14 141 80 290 22
35 38 67 36 71 -1 5 -84 -18 -183 -51 -162 -53 -191 -60 -286 -64 -120 -6
-155 5 -190 60 -39 62 -5 188 74 274 58 63 47 77 -65 81 l-85 3 -6 457 c-13
866 -8 1040 35 1166 25 78 62 130 145 206 213 196 299 234 688 305 72 13 194
38 272 54 151 32 273 45 578 61 442 23 555 36 555 65 0 32 -256 49 -740 50
-468 0 -570 -8 -799 -66 -85 -21 -161 -39 -169 -39 -40 0 138 147 271 224 117
68 75 88 -80 37 -130 -42 -249 -90 -439 -177 -165 -75 -274 -118 -281 -111 -7
7 121 139 176 181 74 57 196 124 306 168 117 47 166 61 305 93 239 54 251 57
247 69 -4 13 -173 15 -367 4 -146 -8 -328 -34 -385 -54 -82 -30 -186 -64 -195
-64 -25 0 -4 35 68 111 104 111 229 210 333 264 94 48 112 65 107 92 -6 30
-67 42 -286 53 -116 6 -223 15 -239 19 l-28 8 30 15 c37 20 236 105 290 124
141 52 250 86 320 100 83 17 115 29 115 43 0 5 -30 27 -67 49 -146 87 -363
285 -340 309 3 3 32 -10 64 -28 260 -145 371 -192 623 -264 52 -15 129 -38
170 -50 169 -51 290 -79 302 -67 6 6 14 47 18 91 10 113 34 147 142 200 100
50 219 81 305 81 48 0 63 3 63 14 0 8 -15 19 -32 25 -36 11 -272 58 -463 91
-444 76 -802 150 -995 205 -175 50 -223 46 550 45 600 0 866 18 1250 85 189
33 610 201 618 248 5 23 -17 22 -110 -8 -89 -28 -326 -71 -478 -85 -58 -6
-184 -18 -280 -27 -229 -22 -838 -25 -917 -5 -29 8 -53 18 -53 22 0 18 142 57
420 115 493 103 753 177 943 269 215 104 407 227 407 261 0 24 -38 27 -87 6
-186 -79 -649 -154 -1028 -167 -137 -5 -148 -4 -131 10 11 9 24 16 29 16 6 0
64 25 131 54 362 164 836 462 836 527 0 10 -4 19 -10 19 -26 0 -130 -26 -255
-65 -328 -102 -707 -184 -885 -192 -138 -6 -141 -10 80 107 85 45 187 100 225
123 96 55 255 166 255 178 0 5 -22 7 -52 4 -68 -7 -435 -33 -556 -39 -102 -6
-100 -8 -51 54 67 87 128 185 121 192 -5 5 -64 31 -132 59 -466 191 -802 475
-980 829 -41 82 -80 185 -80 212 0 20 52 5 111 -32 126 -79 220 -112 265 -92
30 14 30 10 4 277 -14 140 -7 408 14 535 28 168 70 247 212 391 63 63 114 120
114 127 0 6 -19 22 -42 36 -91 53 -273 107 -473 141 -77 13 -155 27 -172 31
-106 21 59 54 272 54 193 0 348 -25 564 -91 75 -23 151 -26 151 -6 0 58 -320
351 -462 423 -28 14 -48 27 -45 30 7 7 192 -15 297 -36 222 -44 454 -127 522
-187 28 -25 53 -12 51 26 -2 43 -44 109 -182 285 -135 172 -283 377 -277 383
7 8 148 -58 241 -112 193 -113 345 -244 467 -401 103 -134 131 -158 179 -151
58 8 88 35 89 79 0 72 -115 336 -206 473 -89 133 -178 236 -435 503 -200 207
-298 317 -275 308 11 -4 63 -32 115 -63z m-7278 -3585 c16 -29 5 -153 -20
-240 -43 -150 -150 -298 -268 -370 -92 -57 -188 -82 -292 -75 -84 5 -175 29
-187 49 -11 17 29 49 126 98 52 27 136 80 185 117 122 92 297 262 345 337 63
97 70 106 85 106 8 0 20 -10 26 -22z m6396 -181 c238 -231 320 -294 463 -357
41 -18 86 -40 99 -48 21 -14 22 -17 6 -28 -41 -30 -240 -44 -345 -24 -203 38
-374 219 -424 447 -21 94 -22 193 -1 193 8 0 99 -82 202 -183z m654 -4577
c129 -33 261 -103 326 -172 81 -85 111 -249 128 -718 14 -383 57 -613 140
-759 17 -31 57 -93 88 -139 60 -87 69 -112 40 -112 -25 0 -107 40 -189 91
-282 175 -494 428 -540 642 -18 84 -17 186 2 301 26 151 30 142 -181 350 -206
203 -212 214 -202 336 7 78 19 107 60 140 74 59 197 75 328 40z m-7579 -51
c110 -23 159 -73 166 -169 8 -113 -69 -221 -252 -355 -138 -100 -166 -125
-188 -160 -23 -38 -24 -117 -2 -176 56 -157 -40 -387 -255 -612 -174 -181
-298 -262 -501 -328 -69 -22 -132 -42 -140 -45 -8 -3 15 26 51 63 79 81 152
182 213 295 63 117 94 206 117 333 11 61 28 160 39 220 11 61 33 187 50 280
17 94 34 195 39 225 14 86 58 212 91 262 35 52 81 85 171 123 115 49 289 68
401 44z m-1892 -1439 c68 -158 158 -341 216 -435 48 -79 104 -195 104 -216 0
-13 -17 -21 -71 -34 -87 -19 -244 -29 -283 -18 -85 25 -117 141 -118 418 0
175 16 311 49 425 17 57 18 58 29 32 6 -15 39 -92 74 -172z m11371 -49 c32
-152 22 -523 -16 -628 -15 -41 -25 -55 -49 -64 -42 -16 -313 -24 -349 -10
l-28 11 21 39 c11 22 49 85 85 141 70 107 154 270 199 384 15 37 43 103 62
145 33 70 36 75 49 57 8 -10 19 -44 26 -75z m-10056 -2426 c634 -154 906 -208
1126 -224 186 -14 270 -41 289 -94 12 -34 14 -376 2 -394 -7 -12 -204 73 -507
216 -49 24 -126 59 -170 78 -104 46 -827 403 -885 437 -25 15 -36 25 -25 22
11 -2 88 -21 170 -41z m8425 -11 c-141 -74 -846 -424 -855 -424 -10 0 -141
-58 -315 -141 -174 -82 -340 -143 -354 -129 -16 16 -25 95 -25 225 -1 150 3
169 34 189 42 28 178 57 315 67 74 5 155 14 180 18 91 18 408 83 525 107 130
28 359 83 495 119 47 13 90 23 95 24 6 0 -37 -24 -95 -55z"/>
<path d="M8700 17383 c-231 -13 -915 -124 -984 -160 -17 -9 -69 -20 -116 -24
-93 -8 -249 -55 -387 -117 l-83 -37 0 -7690 0 -7691 68 -31 c116 -54 159 -66
527 -149 61 -14 144 -33 185 -44 465 -116 1362 -164 2257 -120 301 15 715 83
1067 175 236 61 345 98 425 142 l51 28 -3 7693 -2 7693 -55 20 c-77 28 -159
52 -355 104 -93 25 -215 58 -270 74 -255 76 -681 114 -1435 131 -407 9 -763
10 -890 3z m393 -2720 c4 -927 8 -1687 10 -1689 1 -1 281 -5 622 -8 341 -4
684 -9 763 -12 l142 -6 0 -329 0 -329 -1190 0 -1190 0 0 2030 0 2030 418 0
419 0 6 -1687z m1500 -3095 c-2 -139 -6 -285 -9 -324 l-5 -71 -61 -7 c-34 -3
-372 -6 -753 -6 l-693 0 -6 -162 c-3 -90 -9 -304 -12 -475 l-7 -313 724 0 724
0 0 -350 0 -350 -724 0 -724 0 7 -357 c3 -197 9 -437 12 -534 l6 -176 322 -6
c176 -4 481 -7 677 -7 196 0 411 -3 477 -7 l122 -6 0 -334 0 -333 -1230 0
-1230 0 0 2035 0 2035 1194 0 1193 0 -4 -252z m-953 -4203 c342 -32 567 -105
740 -241 158 -124 322 -425 419 -769 51 -181 72 -391 87 -860 7 -225 -9 -777
-27 -960 -45 -453 -175 -796 -384 -1014 -171 -178 -347 -267 -650 -328 -114
-23 -161 -27 -380 -30 -239 -5 -256 -4 -380 21 -159 32 -265 66 -370 119 -176
87 -307 202 -408 357 -145 225 -181 341 -267 880 -24 150 -32 416 -27 855 4
380 8 473 26 595 25 182 65 396 86 464 44 143 62 191 115 302 150 311 349 474
696 569 200 55 432 68 724 40z m-24 -4710 c184 -108 213 -365 61 -531 -70 -77
-91 -84 -239 -84 -153 0 -179 11 -270 109 -98 106 -111 158 -76 301 24 96 73
162 153 202 55 28 123 38 235 32 77 -4 102 -9 136 -29z"/>
<path d="M9360 6794 c-64 -13 -154 -49 -208 -84 -138 -88 -216 -257 -264 -565
-19 -128 -22 -188 -25 -715 -8 -1063 27 -1323 203 -1519 95 -106 206 -151 369
-151 160 0 284 49 378 148 90 97 128 218 166 527 40 320 49 1086 18 1460 -27
331 -72 559 -129 655 -56 95 -177 189 -282 222 -62 19 -181 30 -226 22z"/>
<path d="M9302 2604 c-94 -47 -146 -141 -147 -264 0 -97 24 -136 112 -181 166
-86 339 -55 413 75 24 42 30 63 30 115 0 94 -17 138 -75 196 -88 88 -226 112
-333 59z"/>
<path d="M2345 10938 c-21 -24 -61 -68 -89 -98 -353 -378 -900 -1064 -1060
-1329 -112 -184 -110 -186 137 -185 263 2 458 45 524 116 30 32 37 54 62 198
70 391 158 641 410 1163 39 81 71 154 71 162 0 25 -16 17 -55 -27z"/>
<path d="M4145 8953 c-318 -68 -509 -130 -800 -263 -313 -142 -570 -283 -853
-466 -232 -151 -422 -315 -438 -378 -18 -71 28 -108 103 -82 80 27 205 109
278 182 77 77 129 114 315 226 130 78 376 218 383 218 3 0 42 21 88 46 102 57
498 255 629 315 221 101 335 163 335 183 0 21 -10 26 -40 19z"/>
<path d="M4055 8645 c-137 -39 -337 -114 -565 -212 -63 -28 -133 -56 -155 -63
-76 -24 -268 -139 -580 -348 -399 -267 -520 -397 -444 -473 42 -42 119 -11
235 93 268 240 600 450 1154 728 135 68 279 141 320 164 41 23 86 47 100 54
49 26 73 49 67 66 -8 21 -34 19 -132 -9z"/>
<path d="M4000 8315 c-135 -27 -581 -234 -895 -415 -276 -158 -618 -418 -661
-501 -29 -58 -13 -103 36 -101 45 1 115 46 338 220 313 243 345 262 857 522
187 95 352 181 367 191 14 11 29 19 33 19 14 0 75 53 75 66 0 18 -59 17 -150
-1z"/>
<path d="M15370 12653 c-139 -15 -220 -38 -680 -190 -410 -136 -509 -154 -855
-155 -338 0 -401 16 -560 146 -44 36 -83 66 -88 66 -32 0 -1 -77 75 -189 96
-140 315 -319 448 -366 59 -21 370 -31 540 -17 120 10 128 12 213 56 60 31 94
43 107 38 10 -4 50 -35 88 -69 l70 -62 4 187 c3 103 10 199 16 214 8 21 23 31
63 42 64 20 95 12 115 -27 14 -26 15 -59 9 -237 -7 -187 -6 -208 10 -223 16
-16 19 -16 57 5 75 42 211 204 283 336 42 78 87 122 123 122 66 0 66 -63 0
-217 -103 -242 -202 -328 -393 -344 -128 -10 -234 -51 -341 -130 -93 -69 -117
-137 -66 -188 81 -81 343 -25 714 154 128 61 218 95 254 95 30 0 89 -72 188
-226 42 -67 87 -130 99 -142 35 -32 105 -67 207 -102 126 -44 252 -104 386
-186 60 -37 135 -78 168 -91 71 -29 130 -28 134 2 3 21 -48 102 -154 244 -211
284 -350 609 -399 936 -37 241 -77 339 -172 424 -60 54 -115 74 -244 91 -70 9
-344 11 -419 3z"/>
<path d="M14644 9260 c-33 -13 -39 -30 -18 -51 11 -10 105 -63 209 -117 386
-200 648 -374 985 -654 279 -232 375 -319 396 -360 28 -53 -1 -39 -246 124
-104 69 -215 136 -340 206 -25 13 -49 28 -55 32 -10 7 -106 59 -270 145 -137
72 -357 158 -512 200 -212 56 -449 95 -593 95 -84 0 -110 -8 -110 -31 0 -35
57 -61 240 -109 144 -37 409 -125 530 -175 263 -108 769 -369 988 -511 64 -41
129 -77 145 -81 15 -3 41 -22 59 -42 30 -34 31 -36 11 -39 -31 -5 -202 38
-543 135 -212 60 -328 98 -438 144 -192 81 -753 200 -1102 234 -152 15 -202
13 -235 -11 -15 -11 -17 -18 -9 -31 18 -28 130 -63 238 -73 141 -14 259 -37
596 -120 254 -63 494 -136 674 -207 49 -20 196 -71 325 -114 284 -94 386 -130
556 -198 97 -39 152 -55 215 -62 97 -12 232 -4 270 16 65 34 156 158 146 199
-23 94 -689 697 -1061 962 -385 274 -942 536 -1051 494z"/>
</g>
</svg>
